<mxfile host="app.diagrams.net" agent="Mozilla/5.0 (Windows NT 10.0; Win64; x64) AppleWebKit/537.36 (KHTML, like Gecko) Chrome/130.0.0.0 Safari/537.36" version="24.7.17">
  <diagram id="C5RBs43oDa-KdzZeNtuy" name="Page-1">
    <mxGraphModel dx="792" dy="1097" grid="1" gridSize="10" guides="1" tooltips="1" connect="1" arrows="1" fold="1" page="1" pageScale="1" pageWidth="827" pageHeight="1169" math="0" shadow="0">
      <root>
        <mxCell id="WIyWlLk6GJQsqaUBKTNV-0" />
        <mxCell id="WIyWlLk6GJQsqaUBKTNV-1" parent="WIyWlLk6GJQsqaUBKTNV-0" />
        <mxCell id="WJ5TMUdDsccL5TXg3Nmk-2" style="edgeStyle=orthogonalEdgeStyle;rounded=0;orthogonalLoop=1;jettySize=auto;html=1;exitX=0.5;exitY=1;exitDx=0;exitDy=0;entryX=0.5;entryY=0;entryDx=0;entryDy=0;" edge="1" parent="WIyWlLk6GJQsqaUBKTNV-1" source="WJ5TMUdDsccL5TXg3Nmk-0" target="WJ5TMUdDsccL5TXg3Nmk-1">
          <mxGeometry relative="1" as="geometry" />
        </mxCell>
        <mxCell id="WJ5TMUdDsccL5TXg3Nmk-0" value="Начало" style="ellipse;whiteSpace=wrap;html=1;" vertex="1" parent="WIyWlLk6GJQsqaUBKTNV-1">
          <mxGeometry x="350" y="80" width="100" height="40" as="geometry" />
        </mxCell>
        <mxCell id="WJ5TMUdDsccL5TXg3Nmk-6" value="" style="edgeStyle=orthogonalEdgeStyle;rounded=0;orthogonalLoop=1;jettySize=auto;html=1;" edge="1" parent="WIyWlLk6GJQsqaUBKTNV-1" source="WJ5TMUdDsccL5TXg3Nmk-1" target="WJ5TMUdDsccL5TXg3Nmk-5">
          <mxGeometry relative="1" as="geometry" />
        </mxCell>
        <mxCell id="WJ5TMUdDsccL5TXg3Nmk-10" value="" style="edgeStyle=orthogonalEdgeStyle;rounded=0;orthogonalLoop=1;jettySize=auto;html=1;" edge="1" parent="WIyWlLk6GJQsqaUBKTNV-1" source="WJ5TMUdDsccL5TXg3Nmk-1" target="WJ5TMUdDsccL5TXg3Nmk-9">
          <mxGeometry relative="1" as="geometry">
            <Array as="points">
              <mxPoint x="530" y="170" />
              <mxPoint x="530" y="305" />
            </Array>
          </mxGeometry>
        </mxCell>
        <mxCell id="WJ5TMUdDsccL5TXg3Nmk-1" value="a: v" style="shape=hexagon;perimeter=hexagonPerimeter2;whiteSpace=wrap;html=1;fixedSize=1;" vertex="1" parent="WIyWlLk6GJQsqaUBKTNV-1">
          <mxGeometry x="340" y="150" width="120" height="40" as="geometry" />
        </mxCell>
        <mxCell id="WJ5TMUdDsccL5TXg3Nmk-7" style="edgeStyle=orthogonalEdgeStyle;rounded=0;orthogonalLoop=1;jettySize=auto;html=1;exitX=0.5;exitY=1;exitDx=0;exitDy=0;entryX=0;entryY=0.5;entryDx=0;entryDy=0;" edge="1" parent="WIyWlLk6GJQsqaUBKTNV-1" source="WJ5TMUdDsccL5TXg3Nmk-5" target="WJ5TMUdDsccL5TXg3Nmk-1">
          <mxGeometry relative="1" as="geometry" />
        </mxCell>
        <mxCell id="WJ5TMUdDsccL5TXg3Nmk-5" value="cout &amp;lt;&amp;lt; a &amp;lt;&amp;lt; &quot; &#39;;" style="shape=parallelogram;perimeter=parallelogramPerimeter;whiteSpace=wrap;html=1;fixedSize=1;" vertex="1" parent="WIyWlLk6GJQsqaUBKTNV-1">
          <mxGeometry x="340" y="210" width="120" height="40" as="geometry" />
        </mxCell>
        <mxCell id="WJ5TMUdDsccL5TXg3Nmk-9" value="конец" style="ellipse;whiteSpace=wrap;html=1;" vertex="1" parent="WIyWlLk6GJQsqaUBKTNV-1">
          <mxGeometry x="360" y="290" width="80" height="30" as="geometry" />
        </mxCell>
        <mxCell id="WJ5TMUdDsccL5TXg3Nmk-14" style="edgeStyle=orthogonalEdgeStyle;rounded=0;orthogonalLoop=1;jettySize=auto;html=1;exitX=0.5;exitY=1;exitDx=0;exitDy=0;entryX=0.5;entryY=0;entryDx=0;entryDy=0;" edge="1" parent="WIyWlLk6GJQsqaUBKTNV-1" source="WJ5TMUdDsccL5TXg3Nmk-11" target="WJ5TMUdDsccL5TXg3Nmk-12">
          <mxGeometry relative="1" as="geometry" />
        </mxCell>
        <mxCell id="WJ5TMUdDsccL5TXg3Nmk-11" value="начало" style="ellipse;whiteSpace=wrap;html=1;" vertex="1" parent="WIyWlLk6GJQsqaUBKTNV-1">
          <mxGeometry x="140" y="340" width="110" height="40" as="geometry" />
        </mxCell>
        <mxCell id="WJ5TMUdDsccL5TXg3Nmk-16" style="edgeStyle=orthogonalEdgeStyle;rounded=0;orthogonalLoop=1;jettySize=auto;html=1;exitX=0.5;exitY=1;exitDx=0;exitDy=0;entryX=0.5;entryY=0;entryDx=0;entryDy=0;" edge="1" parent="WIyWlLk6GJQsqaUBKTNV-1" source="WJ5TMUdDsccL5TXg3Nmk-12" target="WJ5TMUdDsccL5TXg3Nmk-15">
          <mxGeometry relative="1" as="geometry" />
        </mxCell>
        <mxCell id="WJ5TMUdDsccL5TXg3Nmk-24" style="edgeStyle=orthogonalEdgeStyle;rounded=0;orthogonalLoop=1;jettySize=auto;html=1;exitX=1;exitY=0.5;exitDx=0;exitDy=0;entryX=0.5;entryY=0;entryDx=0;entryDy=0;" edge="1" parent="WIyWlLk6GJQsqaUBKTNV-1" source="WJ5TMUdDsccL5TXg3Nmk-12" target="WJ5TMUdDsccL5TXg3Nmk-22">
          <mxGeometry relative="1" as="geometry">
            <Array as="points">
              <mxPoint x="350" y="425" />
              <mxPoint x="350" y="670" />
              <mxPoint x="195" y="670" />
            </Array>
          </mxGeometry>
        </mxCell>
        <mxCell id="WJ5TMUdDsccL5TXg3Nmk-12" value="i = v.size(); i&amp;gt;=0;i--" style="shape=hexagon;perimeter=hexagonPerimeter2;whiteSpace=wrap;html=1;fixedSize=1;" vertex="1" parent="WIyWlLk6GJQsqaUBKTNV-1">
          <mxGeometry x="97.5" y="410" width="195" height="30" as="geometry" />
        </mxCell>
        <mxCell id="WJ5TMUdDsccL5TXg3Nmk-19" style="edgeStyle=orthogonalEdgeStyle;rounded=0;orthogonalLoop=1;jettySize=auto;html=1;exitX=0.5;exitY=1;exitDx=0;exitDy=0;entryX=0.5;entryY=0;entryDx=0;entryDy=0;" edge="1" parent="WIyWlLk6GJQsqaUBKTNV-1" source="WJ5TMUdDsccL5TXg3Nmk-15" target="WJ5TMUdDsccL5TXg3Nmk-18">
          <mxGeometry relative="1" as="geometry" />
        </mxCell>
        <mxCell id="WJ5TMUdDsccL5TXg3Nmk-26" style="edgeStyle=orthogonalEdgeStyle;rounded=0;orthogonalLoop=1;jettySize=auto;html=1;exitX=1;exitY=0.5;exitDx=0;exitDy=0;entryX=0;entryY=0.5;entryDx=0;entryDy=0;" edge="1" parent="WIyWlLk6GJQsqaUBKTNV-1" source="WJ5TMUdDsccL5TXg3Nmk-15" target="WJ5TMUdDsccL5TXg3Nmk-12">
          <mxGeometry relative="1" as="geometry">
            <Array as="points">
              <mxPoint x="290" y="508" />
              <mxPoint x="290" y="640" />
              <mxPoint x="78" y="640" />
              <mxPoint x="78" y="425" />
            </Array>
          </mxGeometry>
        </mxCell>
        <mxCell id="WJ5TMUdDsccL5TXg3Nmk-15" value="v[i] &amp;lt; 0" style="rhombus;whiteSpace=wrap;html=1;" vertex="1" parent="WIyWlLk6GJQsqaUBKTNV-1">
          <mxGeometry x="155" y="475" width="80" height="65" as="geometry" />
        </mxCell>
        <mxCell id="WJ5TMUdDsccL5TXg3Nmk-17" value="конец" style="ellipse;whiteSpace=wrap;html=1;" vertex="1" parent="WIyWlLk6GJQsqaUBKTNV-1">
          <mxGeometry x="135" y="790" width="120" height="30" as="geometry" />
        </mxCell>
        <mxCell id="WJ5TMUdDsccL5TXg3Nmk-31" style="edgeStyle=orthogonalEdgeStyle;rounded=0;orthogonalLoop=1;jettySize=auto;html=1;exitX=0.5;exitY=1;exitDx=0;exitDy=0;entryX=0.5;entryY=0;entryDx=0;entryDy=0;" edge="1" parent="WIyWlLk6GJQsqaUBKTNV-1" source="WJ5TMUdDsccL5TXg3Nmk-18" target="WJ5TMUdDsccL5TXg3Nmk-28">
          <mxGeometry relative="1" as="geometry" />
        </mxCell>
        <mxCell id="WJ5TMUdDsccL5TXg3Nmk-18" value="return i" style="rounded=0;whiteSpace=wrap;html=1;" vertex="1" parent="WIyWlLk6GJQsqaUBKTNV-1">
          <mxGeometry x="135" y="560" width="120" height="30" as="geometry" />
        </mxCell>
        <mxCell id="WJ5TMUdDsccL5TXg3Nmk-20" value="Да" style="text;html=1;align=center;verticalAlign=middle;whiteSpace=wrap;rounded=0;" vertex="1" parent="WIyWlLk6GJQsqaUBKTNV-1">
          <mxGeometry x="195" y="530" width="60" height="30" as="geometry" />
        </mxCell>
        <mxCell id="WJ5TMUdDsccL5TXg3Nmk-23" style="edgeStyle=orthogonalEdgeStyle;rounded=0;orthogonalLoop=1;jettySize=auto;html=1;exitX=0.5;exitY=1;exitDx=0;exitDy=0;entryX=0.5;entryY=0;entryDx=0;entryDy=0;" edge="1" parent="WIyWlLk6GJQsqaUBKTNV-1" source="WJ5TMUdDsccL5TXg3Nmk-22" target="WJ5TMUdDsccL5TXg3Nmk-17">
          <mxGeometry relative="1" as="geometry" />
        </mxCell>
        <mxCell id="WJ5TMUdDsccL5TXg3Nmk-22" value="return -1" style="rounded=0;whiteSpace=wrap;html=1;" vertex="1" parent="WIyWlLk6GJQsqaUBKTNV-1">
          <mxGeometry x="135" y="690" width="120" height="30" as="geometry" />
        </mxCell>
        <mxCell id="WJ5TMUdDsccL5TXg3Nmk-29" style="edgeStyle=orthogonalEdgeStyle;rounded=0;orthogonalLoop=1;jettySize=auto;html=1;exitX=1;exitY=0.5;exitDx=0;exitDy=0;entryX=0;entryY=0.5;entryDx=0;entryDy=0;" edge="1" parent="WIyWlLk6GJQsqaUBKTNV-1" source="WJ5TMUdDsccL5TXg3Nmk-27" target="WJ5TMUdDsccL5TXg3Nmk-17">
          <mxGeometry relative="1" as="geometry" />
        </mxCell>
        <mxCell id="WJ5TMUdDsccL5TXg3Nmk-27" value="1" style="ellipse;whiteSpace=wrap;html=1;" vertex="1" parent="WIyWlLk6GJQsqaUBKTNV-1">
          <mxGeometry x="67.5" y="792.5" width="30" height="25" as="geometry" />
        </mxCell>
        <mxCell id="WJ5TMUdDsccL5TXg3Nmk-28" value="1" style="ellipse;whiteSpace=wrap;html=1;" vertex="1" parent="WIyWlLk6GJQsqaUBKTNV-1">
          <mxGeometry x="180" y="610" width="30" height="25" as="geometry" />
        </mxCell>
        <mxCell id="WJ5TMUdDsccL5TXg3Nmk-34" style="edgeStyle=orthogonalEdgeStyle;rounded=0;orthogonalLoop=1;jettySize=auto;html=1;exitX=0.5;exitY=1;exitDx=0;exitDy=0;entryX=0.5;entryY=0;entryDx=0;entryDy=0;" edge="1" parent="WIyWlLk6GJQsqaUBKTNV-1" source="WJ5TMUdDsccL5TXg3Nmk-32" target="WJ5TMUdDsccL5TXg3Nmk-33">
          <mxGeometry relative="1" as="geometry" />
        </mxCell>
        <mxCell id="WJ5TMUdDsccL5TXg3Nmk-32" value="Начало" style="ellipse;whiteSpace=wrap;html=1;" vertex="1" parent="WIyWlLk6GJQsqaUBKTNV-1">
          <mxGeometry x="90" y="20" width="80" height="30" as="geometry" />
        </mxCell>
        <mxCell id="WJ5TMUdDsccL5TXg3Nmk-37" style="edgeStyle=orthogonalEdgeStyle;rounded=0;orthogonalLoop=1;jettySize=auto;html=1;exitX=0.5;exitY=1;exitDx=0;exitDy=0;entryX=0.5;entryY=0;entryDx=0;entryDy=0;" edge="1" parent="WIyWlLk6GJQsqaUBKTNV-1" source="WJ5TMUdDsccL5TXg3Nmk-33" target="WJ5TMUdDsccL5TXg3Nmk-35">
          <mxGeometry relative="1" as="geometry" />
        </mxCell>
        <mxCell id="WJ5TMUdDsccL5TXg3Nmk-42" style="edgeStyle=orthogonalEdgeStyle;rounded=0;orthogonalLoop=1;jettySize=auto;html=1;exitX=1;exitY=0.5;exitDx=0;exitDy=0;entryX=0.5;entryY=0;entryDx=0;entryDy=0;" edge="1" parent="WIyWlLk6GJQsqaUBKTNV-1" source="WJ5TMUdDsccL5TXg3Nmk-33" target="WJ5TMUdDsccL5TXg3Nmk-41">
          <mxGeometry relative="1" as="geometry">
            <Array as="points">
              <mxPoint x="210" y="90" />
              <mxPoint x="210" y="220" />
              <mxPoint x="130" y="220" />
            </Array>
          </mxGeometry>
        </mxCell>
        <mxCell id="WJ5TMUdDsccL5TXg3Nmk-33" value="1" style="rhombus;whiteSpace=wrap;html=1;" vertex="1" parent="WIyWlLk6GJQsqaUBKTNV-1">
          <mxGeometry x="90" y="70" width="80" height="40" as="geometry" />
        </mxCell>
        <mxCell id="WJ5TMUdDsccL5TXg3Nmk-39" style="edgeStyle=orthogonalEdgeStyle;rounded=0;orthogonalLoop=1;jettySize=auto;html=1;exitX=0.5;exitY=1;exitDx=0;exitDy=0;entryX=0.5;entryY=0;entryDx=0;entryDy=0;" edge="1" parent="WIyWlLk6GJQsqaUBKTNV-1" source="WJ5TMUdDsccL5TXg3Nmk-35" target="WJ5TMUdDsccL5TXg3Nmk-38">
          <mxGeometry relative="1" as="geometry" />
        </mxCell>
        <mxCell id="WJ5TMUdDsccL5TXg3Nmk-35" value="cin &amp;gt;&amp;gt; a" style="shape=parallelogram;perimeter=parallelogramPerimeter;whiteSpace=wrap;html=1;fixedSize=1;" vertex="1" parent="WIyWlLk6GJQsqaUBKTNV-1">
          <mxGeometry x="75" y="130" width="110" height="20" as="geometry" />
        </mxCell>
        <mxCell id="WJ5TMUdDsccL5TXg3Nmk-40" style="edgeStyle=orthogonalEdgeStyle;rounded=0;orthogonalLoop=1;jettySize=auto;html=1;exitX=0.5;exitY=1;exitDx=0;exitDy=0;entryX=0;entryY=0.5;entryDx=0;entryDy=0;" edge="1" parent="WIyWlLk6GJQsqaUBKTNV-1" source="WJ5TMUdDsccL5TXg3Nmk-38" target="WJ5TMUdDsccL5TXg3Nmk-33">
          <mxGeometry relative="1" as="geometry">
            <Array as="points">
              <mxPoint x="130" y="210" />
              <mxPoint x="60" y="210" />
              <mxPoint x="60" y="90" />
            </Array>
          </mxGeometry>
        </mxCell>
        <mxCell id="WJ5TMUdDsccL5TXg3Nmk-38" value="v.push_back(a)" style="shape=process;whiteSpace=wrap;html=1;backgroundOutline=1;" vertex="1" parent="WIyWlLk6GJQsqaUBKTNV-1">
          <mxGeometry x="70" y="165" width="120" height="25" as="geometry" />
        </mxCell>
        <mxCell id="WJ5TMUdDsccL5TXg3Nmk-41" value="конец" style="ellipse;whiteSpace=wrap;html=1;" vertex="1" parent="WIyWlLk6GJQsqaUBKTNV-1">
          <mxGeometry x="70" y="233" width="120" height="27" as="geometry" />
        </mxCell>
        <mxCell id="WJ5TMUdDsccL5TXg3Nmk-45" style="edgeStyle=orthogonalEdgeStyle;rounded=0;orthogonalLoop=1;jettySize=auto;html=1;exitX=0.5;exitY=1;exitDx=0;exitDy=0;entryX=0.5;entryY=0;entryDx=0;entryDy=0;" edge="1" parent="WIyWlLk6GJQsqaUBKTNV-1" source="WJ5TMUdDsccL5TXg3Nmk-43" target="WJ5TMUdDsccL5TXg3Nmk-44">
          <mxGeometry relative="1" as="geometry" />
        </mxCell>
        <mxCell id="WJ5TMUdDsccL5TXg3Nmk-43" value="Начало" style="ellipse;whiteSpace=wrap;html=1;" vertex="1" parent="WIyWlLk6GJQsqaUBKTNV-1">
          <mxGeometry x="464" y="347.5" width="80" height="30" as="geometry" />
        </mxCell>
        <mxCell id="WJ5TMUdDsccL5TXg3Nmk-48" value="" style="edgeStyle=orthogonalEdgeStyle;rounded=0;orthogonalLoop=1;jettySize=auto;html=1;" edge="1" parent="WIyWlLk6GJQsqaUBKTNV-1" source="WJ5TMUdDsccL5TXg3Nmk-44" target="WJ5TMUdDsccL5TXg3Nmk-47">
          <mxGeometry relative="1" as="geometry" />
        </mxCell>
        <mxCell id="WJ5TMUdDsccL5TXg3Nmk-44" value="mx = v[0]" style="rounded=0;whiteSpace=wrap;html=1;" vertex="1" parent="WIyWlLk6GJQsqaUBKTNV-1">
          <mxGeometry x="444" y="407.5" width="120" height="30" as="geometry" />
        </mxCell>
        <mxCell id="WJ5TMUdDsccL5TXg3Nmk-50" style="edgeStyle=orthogonalEdgeStyle;rounded=0;orthogonalLoop=1;jettySize=auto;html=1;exitX=0.5;exitY=1;exitDx=0;exitDy=0;entryX=0.5;entryY=0;entryDx=0;entryDy=0;" edge="1" parent="WIyWlLk6GJQsqaUBKTNV-1" source="WJ5TMUdDsccL5TXg3Nmk-47" target="WJ5TMUdDsccL5TXg3Nmk-49">
          <mxGeometry relative="1" as="geometry" />
        </mxCell>
        <mxCell id="WJ5TMUdDsccL5TXg3Nmk-55" value="" style="edgeStyle=orthogonalEdgeStyle;rounded=0;orthogonalLoop=1;jettySize=auto;html=1;" edge="1" parent="WIyWlLk6GJQsqaUBKTNV-1" source="WJ5TMUdDsccL5TXg3Nmk-47" target="WJ5TMUdDsccL5TXg3Nmk-54">
          <mxGeometry relative="1" as="geometry">
            <Array as="points">
              <mxPoint x="604" y="472.5" />
              <mxPoint x="604" y="617.5" />
              <mxPoint x="504" y="617.5" />
            </Array>
          </mxGeometry>
        </mxCell>
        <mxCell id="WJ5TMUdDsccL5TXg3Nmk-47" value="a: v;" style="shape=hexagon;perimeter=hexagonPerimeter2;whiteSpace=wrap;html=1;fixedSize=1;rounded=0;" vertex="1" parent="WIyWlLk6GJQsqaUBKTNV-1">
          <mxGeometry x="444" y="457.5" width="120" height="30" as="geometry" />
        </mxCell>
        <mxCell id="WJ5TMUdDsccL5TXg3Nmk-52" value="" style="edgeStyle=orthogonalEdgeStyle;rounded=0;orthogonalLoop=1;jettySize=auto;html=1;" edge="1" parent="WIyWlLk6GJQsqaUBKTNV-1" source="WJ5TMUdDsccL5TXg3Nmk-49" target="WJ5TMUdDsccL5TXg3Nmk-51">
          <mxGeometry relative="1" as="geometry" />
        </mxCell>
        <mxCell id="WJ5TMUdDsccL5TXg3Nmk-49" value="a &amp;gt; mx" style="rhombus;whiteSpace=wrap;html=1;" vertex="1" parent="WIyWlLk6GJQsqaUBKTNV-1">
          <mxGeometry x="464" y="500" width="80" height="40" as="geometry" />
        </mxCell>
        <mxCell id="WJ5TMUdDsccL5TXg3Nmk-53" style="edgeStyle=orthogonalEdgeStyle;rounded=0;orthogonalLoop=1;jettySize=auto;html=1;exitX=0.5;exitY=1;exitDx=0;exitDy=0;entryX=0;entryY=0.5;entryDx=0;entryDy=0;" edge="1" parent="WIyWlLk6GJQsqaUBKTNV-1" source="WJ5TMUdDsccL5TXg3Nmk-51" target="WJ5TMUdDsccL5TXg3Nmk-47">
          <mxGeometry relative="1" as="geometry" />
        </mxCell>
        <mxCell id="WJ5TMUdDsccL5TXg3Nmk-51" value="mx = a" style="whiteSpace=wrap;html=1;" vertex="1" parent="WIyWlLk6GJQsqaUBKTNV-1">
          <mxGeometry x="444" y="557.5" width="120" height="30" as="geometry" />
        </mxCell>
        <mxCell id="WJ5TMUdDsccL5TXg3Nmk-57" value="" style="edgeStyle=orthogonalEdgeStyle;rounded=0;orthogonalLoop=1;jettySize=auto;html=1;" edge="1" parent="WIyWlLk6GJQsqaUBKTNV-1" source="WJ5TMUdDsccL5TXg3Nmk-54" target="WJ5TMUdDsccL5TXg3Nmk-56">
          <mxGeometry relative="1" as="geometry" />
        </mxCell>
        <mxCell id="WJ5TMUdDsccL5TXg3Nmk-54" value="i = 0" style="whiteSpace=wrap;html=1;rounded=0;" vertex="1" parent="WIyWlLk6GJQsqaUBKTNV-1">
          <mxGeometry x="444" y="637.5" width="120" height="30" as="geometry" />
        </mxCell>
        <mxCell id="WJ5TMUdDsccL5TXg3Nmk-59" style="edgeStyle=orthogonalEdgeStyle;rounded=0;orthogonalLoop=1;jettySize=auto;html=1;exitX=0.5;exitY=1;exitDx=0;exitDy=0;entryX=0.5;entryY=0;entryDx=0;entryDy=0;" edge="1" parent="WIyWlLk6GJQsqaUBKTNV-1" source="WJ5TMUdDsccL5TXg3Nmk-56" target="WJ5TMUdDsccL5TXg3Nmk-58">
          <mxGeometry relative="1" as="geometry" />
        </mxCell>
        <mxCell id="WJ5TMUdDsccL5TXg3Nmk-56" value="i &amp;lt; v.size()" style="shape=hexagon;perimeter=hexagonPerimeter2;whiteSpace=wrap;html=1;fixedSize=1;rounded=0;" vertex="1" parent="WIyWlLk6GJQsqaUBKTNV-1">
          <mxGeometry x="444" y="687.5" width="120" height="45" as="geometry" />
        </mxCell>
        <mxCell id="WJ5TMUdDsccL5TXg3Nmk-61" style="edgeStyle=orthogonalEdgeStyle;rounded=0;orthogonalLoop=1;jettySize=auto;html=1;exitX=0.5;exitY=1;exitDx=0;exitDy=0;entryX=0.5;entryY=0;entryDx=0;entryDy=0;" edge="1" parent="WIyWlLk6GJQsqaUBKTNV-1" source="WJ5TMUdDsccL5TXg3Nmk-58" target="WJ5TMUdDsccL5TXg3Nmk-60">
          <mxGeometry relative="1" as="geometry" />
        </mxCell>
        <mxCell id="WJ5TMUdDsccL5TXg3Nmk-58" value="&lt;div&gt;&lt;div&gt;v[i] == mx &amp;amp;&amp;amp; i != v.size() - 1&lt;/div&gt;&lt;/div&gt;" style="rhombus;whiteSpace=wrap;html=1;" vertex="1" parent="WIyWlLk6GJQsqaUBKTNV-1">
          <mxGeometry x="414" y="747.5" width="180" height="70" as="geometry" />
        </mxCell>
        <mxCell id="WJ5TMUdDsccL5TXg3Nmk-63" style="edgeStyle=orthogonalEdgeStyle;rounded=0;orthogonalLoop=1;jettySize=auto;html=1;exitX=0.5;exitY=1;exitDx=0;exitDy=0;entryX=0.5;entryY=0;entryDx=0;entryDy=0;" edge="1" parent="WIyWlLk6GJQsqaUBKTNV-1" source="WJ5TMUdDsccL5TXg3Nmk-60" target="WJ5TMUdDsccL5TXg3Nmk-62">
          <mxGeometry relative="1" as="geometry" />
        </mxCell>
        <mxCell id="WJ5TMUdDsccL5TXg3Nmk-60" value="v.erase(v.begin() + i + 1, v.begin() + i + 2);" style="shape=process;whiteSpace=wrap;html=1;backgroundOutline=1;" vertex="1" parent="WIyWlLk6GJQsqaUBKTNV-1">
          <mxGeometry x="406" y="840" width="196" height="50" as="geometry" />
        </mxCell>
        <mxCell id="WJ5TMUdDsccL5TXg3Nmk-64" style="edgeStyle=orthogonalEdgeStyle;rounded=0;orthogonalLoop=1;jettySize=auto;html=1;exitX=0.5;exitY=1;exitDx=0;exitDy=0;entryX=0;entryY=0.5;entryDx=0;entryDy=0;" edge="1" parent="WIyWlLk6GJQsqaUBKTNV-1" source="WJ5TMUdDsccL5TXg3Nmk-62" target="WJ5TMUdDsccL5TXg3Nmk-56">
          <mxGeometry relative="1" as="geometry">
            <Array as="points">
              <mxPoint x="504" y="980" />
              <mxPoint x="380" y="980" />
              <mxPoint x="380" y="710" />
            </Array>
          </mxGeometry>
        </mxCell>
        <mxCell id="WJ5TMUdDsccL5TXg3Nmk-62" value="++i" style="rounded=0;whiteSpace=wrap;html=1;" vertex="1" parent="WIyWlLk6GJQsqaUBKTNV-1">
          <mxGeometry x="444" y="920" width="120" height="40" as="geometry" />
        </mxCell>
      </root>
    </mxGraphModel>
  </diagram>
</mxfile>
